Coordinates
version=1
nRows=6
nColumns=36
inDegrees=yes

Units are S.I. units (second, meters, Newtons, ...)
If the header above contains a line with 'inDegrees', this indicates whether rotational values are in degrees (yes) or radians (no).

endheader
time	pelvis_tilt	pelvis_list	pelvis_rotation	pelvis_tx	pelvis_ty	pelvis_tz	hip_flexion_r	hip_adduction_r	hip_rotation_r	knee_angle_r	knee_angle_r_beta	ankle_angle_r	subtalar_angle_r	mtp_angle_r	hip_flexion_l	hip_adduction_l	hip_rotation_l	knee_angle_l	knee_angle_l_beta	ankle_angle_l	subtalar_angle_l	mtp_angle_l	lumbar_extension	lumbar_bending	lumbar_rotation	arm_flex_r	arm_add_r	arm_rot_r	elbow_flex_r	pro_sup_r	arm_flex_l	arm_add_l	arm_rot_l	elbow_flex_l	pro_sup_l
      2.02000000	    -18.08089693	      0.06681975	      0.69341342	     -0.34473622	      0.81580240	     -0.56505273	     68.35621551	      0.37934523	      4.32098967	     78.94531847	      1.37785574	     33.98471183	     -8.37922540	     -7.49999973	     67.32289992	     -6.01952312	     -0.05703761	     78.41847659	      1.36866061	     35.34048146	     -6.43111059	     -7.49999973	    -25.45903530	     -2.69926991	      2.95879022	     28.34758689	    -26.23975414	      0.91400440	    106.47469650	     78.59685535	     25.12940143	    -26.75246887	     -1.67081885	     93.59074329	     81.02675901
      2.03000000	    -17.97472343	      0.13228096	      0.57816260	     -0.34049478	      0.81501067	     -0.56475767	     68.16760692	      0.60591490	      4.55604995	     79.43363116	      1.38637840	     34.29710962	     -8.66030832	     -7.49999976	     67.03797366	     -6.10989127	     -0.13813948	     78.78410250	      1.37504199	     35.80058322	     -6.44355776	     -7.49999976	    -24.42231822	     -2.80575240	      3.36418203	     27.63695550	    -26.16254504	      1.38375937	    104.91397831	     81.34512283	     25.20932754	    -26.45487571	      0.10229317	     90.24638310	     83.39143364
      2.04000000	    -17.69071975	      0.13181570	      0.53698273	     -0.33437308	      0.81697610	     -0.56395292	     67.61819370	      0.77542136	      4.69426657	     79.74315248	      1.39178057	     34.53009887	     -8.88817619	     -7.49999976	     66.43782707	     -6.11432667	     -0.06863603	     78.96931628	      1.37827458	     36.00394086	     -6.59885196	     -7.49999976	    -23.86343023	     -2.88261810	      3.39999619	     27.13465728	    -26.05928745	      1.65458672	    105.01989561	     81.36642736	     24.30217997	    -26.35050400	      0.42513856	     89.96424489	     83.41133861
      2.05000000	    -17.42178420	      0.20547599	      0.38893071	     -0.32894423	      0.82183168	     -0.56313896	     66.84923543	      1.05260915	      4.98697634	     79.65015766	      1.39015750	     34.66665766	     -9.28592433	     -7.49999977	     65.59805889	     -6.22083009	     -0.16545767	     78.77686372	      1.37491565	     36.35150805	     -6.67455690	     -7.49999977	    -23.03955518	     -3.02522604	      3.43792402	     27.28402046	    -26.29849708	      2.70995894	    105.70294457	     81.43961551	     23.91135309	    -26.93984940	      1.12946983	     89.72240808	     83.46496971
      2.06000000	    -17.16026960	      0.23624838	      0.33660655	     -0.32584381	      0.82667710	     -0.56377858	     65.97852537	      1.20395354	      5.18126293	     79.33572214	      1.38466957	     34.64876436	     -9.60250747	     -7.49999978	     64.73529871	     -6.21172983	     -0.17641701	     78.43374468	      1.36892709	     36.47121365	     -6.77832033	     -7.49999978	    -22.16931441	     -3.07988856	      3.47154515	     28.19701686	    -27.09094019	      3.95668730	    107.12700785	     80.63664786	     23.96047649	    -27.76816065	      1.92670990	     90.71815133	     82.59558863
      2.07000000	    -16.94192244	      0.24886213	      0.24455921	     -0.32188718	      0.82945303	     -0.56531888	     65.10979671	      1.36637016	      5.36915942	     78.93468598	      1.37767016	     34.57666615	     -9.99744249	     -7.49999978	     63.87613082	     -6.19056698	     -0.18850850	     78.03192916	      1.36191409	     36.45834992	     -7.09436076	     -7.49999978	    -21.11986372	     -3.14092791	      3.62709234	     29.56980272	    -28.38287110	      4.80747807	    109.70061183	     80.78027166	     24.21766746	    -28.86994732	      2.54506229	     92.95133596	     82.79045922
